<svg xmlns="http://www.w3.org/2000/svg" xmlns:xlink="http://www.w3.org/1999/xlink" version="1.1" width="256" height="256" viewBox="0 0 256 256" xml:space="preserve">

<defs>
</defs>
<g style="stroke: none; stroke-width: 0; stroke-dasharray: none; stroke-linecap: butt; stroke-linejoin: miter; stroke-miterlimit: 10; fill: none; fill-rule: nonzero; opacity: 1;" transform="translate(1.4065934065934016 1.4065934065934016) scale(2.81 2.81)" >
	<path d="M 54.255 76.136 c -1.797 -3.112 -0.73 -7.09 2.381 -8.887 c 0.785 -0.453 1.624 -0.723 2.47 -0.825 V 51.18 c 0 -3.14 -2.435 -5.831 -5.787 -6.395 l -6.363 -1.072 c -2.019 -0.34 -3.585 -1.73 -4.084 -3.491 l -14.672 0 c -0.499 1.761 -2.065 3.151 -4.084 3.491 l -6.363 1.072 c -3.352 0.565 -5.787 3.256 -5.787 6.395 v 33.806 h 47.139 v -5.651 C 57.147 79.095 55.319 77.978 54.255 76.136 z" style="stroke: none; stroke-width: 1; stroke-dasharray: none; stroke-linecap: butt; stroke-linejoin: miter; stroke-miterlimit: 10; fill: rgb(230,236,255); fill-rule: nonzero; opacity: 1;" transform=" matrix(1 0 0 1 0 0) " stroke-linecap="round" />
	<path d="M 48.158 22.541 l -0.472 7.8 c -0.496 5.924 -4.397 11.015 -9.987 13.035 l 0 0 c -0.698 0.252 -1.43 0.379 -2.162 0.379 s -1.463 -0.126 -2.162 -0.379 l 0 0 c -5.59 -2.02 -9.492 -7.112 -9.987 -13.035 h 0 l -0.501 -7.8 V 17.16 c 0 0 23.051 -4.343 23.284 -4.343 s 2.327 5.274 2.327 5.274 L 48.158 22.541 z" style="stroke: none; stroke-width: 1; stroke-dasharray: none; stroke-linecap: butt; stroke-linejoin: miter; stroke-miterlimit: 10; fill: rgb(255,221,212); fill-rule: nonzero; opacity: 1;" transform=" matrix(1 0 0 1 0 0) " stroke-linecap="round" />
	<path d="M 22.888 22.541 c -5.581 -8.306 -3.048 -13.966 5.938 -17.523 c -0.196 -0.821 -1.328 -1.641 -3.114 -2.462 C 33.101 -0.22 41.89 0.415 45.91 6.908 c 5.508 1.857 7.194 8.021 2.248 15.634 c -0.552 -9.317 -6.6 -8.56 -13.902 -5.503 c -3.692 1.413 -6.898 1.268 -9.92 0.796 C 22.684 17.526 22.765 20.464 22.888 22.541 z" style="stroke: none; stroke-width: 1; stroke-dasharray: none; stroke-linecap: butt; stroke-linejoin: miter; stroke-miterlimit: 10; fill: rgb(73,74,89); fill-rule: nonzero; opacity: 1;" transform=" matrix(1 0 0 1 0 0) " stroke-linecap="round" />
	<path d="M 30.362 81.454 L 33.6 51.27 l -2.432 -3.848 l 1.903 -4.168 c 0.103 0.04 0.202 0.086 0.305 0.123 l 0 0 c 0.698 0.252 1.43 0.379 2.162 0.379 s 1.463 -0.126 2.162 -0.379 l 0 0 c 0.104 -0.037 0.203 -0.083 0.305 -0.123 l 1.903 4.168 l -2.432 3.848 l 3.238 30.183 l -2.408 3.532 H 32.77 L 30.362 81.454 z" style="stroke: none; stroke-width: 1; stroke-dasharray: none; stroke-linecap: butt; stroke-linejoin: miter; stroke-miterlimit: 10; fill: rgb(66,148,255); fill-rule: nonzero; opacity: 1;" transform=" matrix(1 0 0 1 0 0) " stroke-linecap="round" />
	<path d="M 22.888 23.541 c -0.326 0 -0.641 -0.16 -0.83 -0.442 c -2.799 -4.165 -3.719 -7.884 -2.736 -11.051 c 0.938 -3.019 3.608 -5.525 7.944 -7.459 c -0.373 -0.29 -0.981 -0.669 -1.972 -1.124 c -0.367 -0.168 -0.596 -0.541 -0.582 -0.944 c 0.015 -0.403 0.27 -0.758 0.648 -0.9 c 7.344 -2.761 16.689 -2.424 21.209 4.461 c 2.445 0.922 4.223 2.685 5.027 4.995 c 1.17 3.364 0.247 7.63 -2.599 12.01 c -0.235 0.362 -0.676 0.533 -1.095 0.422 c -0.417 -0.11 -0.717 -0.477 -0.742 -0.908 c -0.182 -3.072 -1.007 -5.086 -2.45 -5.987 c -2.466 -1.537 -6.926 0.032 -10.068 1.347 c -4.081 1.562 -7.577 1.312 -10.46 0.863 c -0.157 0.091 -0.47 0.713 -0.296 3.659 c 0.027 0.45 -0.251 0.862 -0.678 1.007 C 23.102 23.524 22.994 23.541 22.888 23.541 z M 42.097 13.978 c 1.339 0 2.595 0.268 3.671 0.939 c 1.456 0.907 2.436 2.414 2.964 4.569 c 1.375 -2.905 1.725 -5.595 0.975 -7.753 c -0.642 -1.845 -2.065 -3.187 -4.116 -3.878 c -0.221 -0.075 -0.408 -0.224 -0.531 -0.421 c -3.442 -5.559 -10.589 -6.336 -16.848 -4.635 c 0.911 0.638 1.417 1.281 1.586 1.988 c 0.115 0.484 -0.142 0.979 -0.605 1.162 c -4.45 1.761 -7.129 4.013 -7.961 6.693 c -0.564 1.816 -0.307 3.926 0.763 6.298 c 0.15 -0.718 0.416 -1.273 0.85 -1.655 c 0.45 -0.396 1.043 -0.55 1.675 -0.432 c 2.727 0.425 5.774 0.632 9.379 -0.748 C 36.442 15.04 39.433 13.978 42.097 13.978 z" style="stroke: none; stroke-width: 1; stroke-dasharray: none; stroke-linecap: butt; stroke-linejoin: miter; stroke-miterlimit: 10; fill: rgb(0,0,0); fill-rule: nonzero; opacity: 1;" transform=" matrix(1 0 0 1 0 0) " stroke-linecap="round" />
	<path d="M 35.538 44.756 c -0.855 0 -1.696 -0.147 -2.502 -0.438 c -5.939 -2.146 -10.118 -7.599 -10.644 -13.892 l -0.502 -7.82 c -0.035 -0.551 0.383 -1.026 0.934 -1.062 c 0.55 -0.026 1.027 0.383 1.062 0.934 l 0.501 7.801 c 0.46 5.497 4.123 10.277 9.329 12.159 c 1.173 0.424 2.471 0.423 3.644 0 c 5.207 -1.881 8.869 -6.662 9.331 -12.178 l 0.47 -7.778 c 0.034 -0.551 0.518 -0.973 1.059 -0.938 c 0.551 0.033 0.971 0.507 0.938 1.059 l -0.472 7.801 c -0.527 6.316 -4.706 11.769 -10.645 13.915 C 37.235 44.608 36.393 44.756 35.538 44.756 z" style="stroke: none; stroke-width: 1; stroke-dasharray: none; stroke-linecap: butt; stroke-linejoin: miter; stroke-miterlimit: 10; fill: rgb(0,0,0); fill-rule: nonzero; opacity: 1;" transform=" matrix(1 0 0 1 0 0) " stroke-linecap="round" />
	<path d="M 22.849 85.986 c -0.552 0 -1 -0.447 -1 -1 v -16.67 c 0 -0.553 0.448 -1 1 -1 c 0.552 0 1 0.447 1 1 v 16.67 C 23.849 85.538 23.401 85.986 22.849 85.986 z" style="stroke: none; stroke-width: 1; stroke-dasharray: none; stroke-linecap: butt; stroke-linejoin: miter; stroke-miterlimit: 10; fill: rgb(0,0,0); fill-rule: nonzero; opacity: 1;" transform=" matrix(1 0 0 1 0 0) " stroke-linecap="round" />
	<path d="M 38.306 85.986 H 32.77 c -0.331 0 -0.64 -0.163 -0.826 -0.437 l -2.408 -3.532 c -0.134 -0.196 -0.193 -0.434 -0.168 -0.67 l 3.201 -29.837 l -2.246 -3.554 c -0.181 -0.285 -0.205 -0.643 -0.064 -0.949 l 1.903 -4.169 c 0.219 -0.48 0.774 -0.708 1.27 -0.518 l 0.283 0.115 c 1.178 0.426 2.474 0.424 3.646 0.001 l 0.287 -0.116 c 0.496 -0.188 1.049 0.039 1.268 0.518 l 1.903 4.169 c 0.14 0.307 0.116 0.664 -0.064 0.949 l -2.246 3.554 l 3.201 29.837 c 0.025 0.236 -0.034 0.474 -0.168 0.67 l -2.408 3.532 C 38.946 85.823 38.637 85.986 38.306 85.986 z M 33.298 83.986 h 4.479 l 1.903 -2.791 l -3.198 -29.817 c -0.024 -0.224 0.028 -0.45 0.149 -0.641 l 2.143 -3.392 l -1.3 -2.848 c -1.257 0.343 -2.609 0.344 -3.871 0 l -1.301 2.848 l 2.143 3.392 c 0.121 0.19 0.173 0.417 0.149 0.641 l -3.198 29.817 L 33.298 83.986 z" style="stroke: none; stroke-width: 1; stroke-dasharray: none; stroke-linecap: butt; stroke-linejoin: miter; stroke-miterlimit: 10; fill: rgb(0,0,0); fill-rule: nonzero; opacity: 1;" transform=" matrix(1 0 0 1 0 0) " stroke-linecap="round" />
	<path d="M 27.528 59.328 h -4.679 c -0.552 0 -1 -0.447 -1 -1 c 0 -0.553 0.448 -1 1 -1 h 4.679 c 0.552 0 1 0.447 1 1 C 28.528 58.88 28.08 59.328 27.528 59.328 z" style="stroke: none; stroke-width: 1; stroke-dasharray: none; stroke-linecap: butt; stroke-linejoin: miter; stroke-miterlimit: 10; fill: rgb(0,0,0); fill-rule: nonzero; opacity: 1;" transform=" matrix(1 0 0 1 0 0) " stroke-linecap="round" />
	<path d="M 32.252 25.912 h -3.438 c -0.552 0 -1 -0.448 -1 -1 c 0 -0.552 0.448 -1 1 -1 h 3.438 c 0.552 0 1 0.448 1 1 C 33.252 25.464 32.804 25.912 32.252 25.912 z" style="stroke: none; stroke-width: 1; stroke-dasharray: none; stroke-linecap: butt; stroke-linejoin: miter; stroke-miterlimit: 10; fill: rgb(0,0,0); fill-rule: nonzero; opacity: 1;" transform=" matrix(1 0 0 1 0 0) " stroke-linecap="round" />
	<path d="M 42.262 25.912 h -3.437 c -0.552 0 -1 -0.448 -1 -1 c 0 -0.552 0.448 -1 1 -1 h 3.437 c 0.552 0 1 0.448 1 1 C 43.262 25.464 42.814 25.912 42.262 25.912 z" style="stroke: none; stroke-width: 1; stroke-dasharray: none; stroke-linecap: butt; stroke-linejoin: miter; stroke-miterlimit: 10; fill: rgb(0,0,0); fill-rule: nonzero; opacity: 1;" transform=" matrix(1 0 0 1 0 0) " stroke-linecap="round" />
	<path d="M 35.46 37.51 c -1.614 0 -3.202 -0.652 -4.719 -1.957 c -0.419 -0.36 -0.466 -0.992 -0.106 -1.41 c 0.36 -0.418 0.993 -0.466 1.41 -0.106 c 2.297 1.975 4.526 1.968 7.015 -0.023 c 0.432 -0.343 1.06 -0.275 1.406 0.157 c 0.345 0.432 0.274 1.061 -0.157 1.406 C 38.696 36.865 37.065 37.51 35.46 37.51 z" style="stroke: none; stroke-width: 1; stroke-dasharray: none; stroke-linecap: butt; stroke-linejoin: miter; stroke-miterlimit: 10; fill: rgb(0,0,0); fill-rule: nonzero; opacity: 1;" transform=" matrix(1 0 0 1 0 0) " stroke-linecap="round" />
	<path d="M 59.107 85.986 H 11.969 c -0.552 0 -1 -0.447 -1 -1 V 51.18 c 0 -3.631 2.784 -6.735 6.621 -7.382 l 6.363 -1.072 c 1.595 -0.269 2.886 -1.358 3.288 -2.777 c 0.15 -0.531 0.707 -0.84 1.234 -0.689 c 0.532 0.15 0.84 0.703 0.689 1.234 c -0.611 2.158 -2.527 3.808 -4.88 4.205 l -6.363 1.072 c -2.87 0.483 -4.953 2.758 -4.953 5.409 v 32.806 h 45.138 v -3.818 c -1.99 -0.48 -3.68 -1.734 -4.718 -3.532 c -1.002 -1.736 -1.269 -3.759 -0.749 -5.696 c 0.519 -1.937 1.761 -3.555 3.497 -4.557 c 0.622 -0.359 1.282 -0.625 1.97 -0.792 V 51.18 c 0 -2.65 -2.083 -4.926 -4.952 -5.409 l -6.363 -1.072 c -2.354 -0.397 -4.269 -2.047 -4.881 -4.205 c -0.151 -0.531 0.158 -1.084 0.689 -1.234 c 0.529 -0.15 1.084 0.158 1.234 0.689 c 0.402 1.419 1.693 2.509 3.289 2.777 l 6.363 1.072 c 3.836 0.647 6.62 3.751 6.62 7.382 v 15.245 c 0 0.506 -0.378 0.933 -0.881 0.993 c -0.737 0.088 -1.44 0.323 -2.089 0.698 c -1.273 0.735 -2.185 1.922 -2.566 3.342 c -0.381 1.421 -0.186 2.904 0.55 4.178 c 0.87 1.508 2.367 2.494 4.107 2.705 c 0.502 0.062 0.879 0.487 0.879 0.993 v 5.652 C 60.107 85.538 59.66 85.986 59.107 85.986 z" style="stroke: none; stroke-width: 1; stroke-dasharray: none; stroke-linecap: butt; stroke-linejoin: miter; stroke-miterlimit: 10; fill: rgb(0,0,0); fill-rule: nonzero; opacity: 1;" transform=" matrix(1 0 0 1 0 0) " stroke-linecap="round" />
	<path d="M 75.509 69.321 c -0.959 0 -1.82 -0.552 -2.26 -1.404 c -0.088 -0.17 -0.18 -0.338 -0.277 -0.506 c -0.096 -0.167 -0.196 -0.332 -0.3 -0.492 c -0.517 -0.807 -0.565 -1.828 -0.085 -2.659 c 0.697 -1.207 0.283 -2.75 -0.923 -3.446 l -3.341 -1.929 c -1.207 -0.697 -2.75 -0.283 -3.446 0.923 l -0.001 0.001 c -0.472 0.819 -1.363 1.301 -2.307 1.255 c -0.41 -0.02 -0.822 -0.02 -1.234 0 c -0.942 0.046 -1.831 -0.438 -2.302 -1.255 l -0.001 -0.001 c -0.697 -1.207 -2.24 -1.62 -3.446 -0.923 l -3.341 1.929 c -1.207 0.697 -1.62 2.24 -0.923 3.446 l 0.001 0.001 c 0.472 0.817 0.447 1.828 -0.064 2.621 c -0.223 0.347 -0.429 0.704 -0.617 1.069 c -0.432 0.841 -1.295 1.37 -2.24 1.37 h -0.001 c -1.393 0 -2.523 1.13 -2.523 2.523 v 3.859 c 0 1.393 1.13 2.523 2.523 2.523 c 0.959 0 1.82 0.552 2.26 1.404 c 0.088 0.17 0.18 0.339 0.277 0.506 c 0.096 0.167 0.196 0.332 0.3 0.492 c 0.517 0.807 0.565 1.828 0.085 2.659 c -0.697 1.207 -0.283 2.75 0.923 3.446 l 3.341 1.929 c 1.207 0.697 2.75 0.283 3.446 -0.923 l 0.001 -0.001 c 0.472 -0.819 1.363 -1.301 2.307 -1.255 c 0.41 0.02 0.822 0.02 1.234 0 c 0.943 -0.046 1.831 0.438 2.303 1.255 l 0.001 0.001 c 0.697 1.207 2.239 1.62 3.446 0.923 l 3.341 -1.929 c 1.207 -0.696 1.62 -2.239 0.923 -3.446 l -0.001 -0.001 c -0.472 -0.817 -0.447 -1.828 0.064 -2.621 c 0.223 -0.347 0.429 -0.704 0.617 -1.069 c 0.432 -0.841 1.295 -1.37 2.24 -1.37 h 0.001 c 1.393 0 2.523 -1.13 2.523 -2.523 v -3.859 C 78.031 70.451 76.902 69.321 75.509 69.321 z M 65.026 79.096 c -2.94 1.697 -6.699 0.69 -8.396 -2.25 c -1.697 -2.94 -0.69 -6.699 2.25 -8.396 c 2.94 -1.697 6.699 -0.69 8.396 2.25 C 68.973 73.64 67.966 77.399 65.026 79.096 z" style="stroke: none; stroke-width: 1; stroke-dasharray: none; stroke-linecap: butt; stroke-linejoin: miter; stroke-miterlimit: 10; fill: rgb(244,210,64); fill-rule: nonzero; opacity: 1;" transform=" matrix(1 0 0 1 0 0) " stroke-linecap="round" />
	<path d="M 67.066 90.002 c -0.306 0 -0.613 -0.04 -0.917 -0.121 c -0.909 -0.243 -1.668 -0.826 -2.139 -1.642 c -0.286 -0.495 -0.819 -0.771 -1.389 -0.757 c -0.446 0.021 -0.889 0.021 -1.331 0 c -0.569 -0.022 -1.106 0.262 -1.392 0.755 c -0.471 0.816 -1.231 1.399 -2.14 1.643 c -0.911 0.246 -1.859 0.118 -2.674 -0.352 L 51.744 87.6 c -1.682 -0.971 -2.261 -3.13 -1.29 -4.813 c 0.286 -0.494 0.263 -1.115 -0.061 -1.619 c -0.111 -0.174 -0.219 -0.351 -0.323 -0.531 c -0.104 -0.181 -0.204 -0.363 -0.3 -0.548 c -0.275 -0.531 -0.802 -0.862 -1.372 -0.862 c -1.942 0 -3.523 -1.581 -3.523 -3.524 v -3.859 c 0 -1.942 1.58 -3.523 3.523 -3.523 c 0.571 0 1.09 -0.317 1.352 -0.828 c 0.202 -0.394 0.425 -0.778 0.666 -1.153 c 0.31 -0.48 0.324 -1.086 0.039 -1.579 c -0.472 -0.815 -0.597 -1.765 -0.353 -2.674 c 0.243 -0.908 0.825 -1.668 1.64 -2.14 l 3.343 -1.93 c 0.816 -0.47 1.765 -0.594 2.673 -0.352 c 0.909 0.243 1.668 0.827 2.139 1.642 c 0.286 0.494 0.826 0.778 1.39 0.757 c 0.443 -0.021 0.887 -0.021 1.332 0 c 0.583 0.038 1.105 -0.262 1.39 -0.755 c 0.972 -1.683 3.131 -2.264 4.814 -1.292 l 3.341 1.93 c 0.814 0.471 1.398 1.231 1.641 2.139 c 0.244 0.909 0.119 1.859 -0.352 2.674 c -0.286 0.494 -0.262 1.114 0.062 1.619 c 0.11 0.172 0.22 0.351 0.324 0.533 c 0.104 0.179 0.203 0.36 0.299 0.545 c 0.275 0.532 0.802 0.863 1.372 0.863 c 1.942 0 3.523 1.58 3.523 3.523 v 3.86 c 0 1.942 -1.58 3.523 -3.523 3.523 c -0.572 0 -1.09 0.316 -1.352 0.827 c -0.202 0.395 -0.425 0.779 -0.667 1.154 c -0.309 0.48 -0.323 1.085 -0.038 1.579 c 0.471 0.815 0.597 1.765 0.353 2.674 c -0.243 0.909 -0.826 1.669 -1.641 2.14 l -3.342 1.929 C 68.279 89.842 67.677 90.002 67.066 90.002 z M 62.698 85.481 c 1.257 0 2.411 0.662 3.044 1.758 c 0.203 0.353 0.532 0.605 0.925 0.711 c 0.39 0.103 0.802 0.051 1.154 -0.153 l 3.343 -1.929 c 0.353 -0.203 0.604 -0.531 0.709 -0.924 c 0.105 -0.394 0.052 -0.804 -0.152 -1.156 c -0.662 -1.146 -0.629 -2.55 0.089 -3.663 c 0.206 -0.319 0.396 -0.647 0.568 -0.984 c 0.605 -1.181 1.806 -1.914 3.13 -1.914 c 0.84 0 1.523 -0.683 1.523 -1.523 v -3.86 c 0 -0.84 -0.683 -1.523 -1.523 -1.523 c -1.321 0 -2.527 -0.745 -3.149 -1.944 c -0.081 -0.156 -0.165 -0.311 -0.254 -0.464 c -0.09 -0.155 -0.18 -0.305 -0.274 -0.45 c -0.73 -1.141 -0.773 -2.558 -0.112 -3.702 c 0.204 -0.353 0.258 -0.763 0.152 -1.156 c -0.105 -0.393 -0.356 -0.721 -0.709 -0.924 l -3.341 -1.93 c -0.726 -0.417 -1.661 -0.171 -2.08 0.558 c -0.662 1.146 -1.886 1.819 -3.222 1.755 c -0.379 -0.02 -0.757 -0.02 -1.136 0 c -1.32 0.064 -2.558 -0.609 -3.219 -1.755 c -0.421 -0.729 -1.353 -0.977 -2.08 -0.558 l -3.342 1.93 c -0.352 0.203 -0.604 0.532 -0.709 0.925 s -0.052 0.803 0.152 1.154 c 0.662 1.147 0.628 2.55 -0.089 3.663 c -0.206 0.32 -0.396 0.648 -0.568 0.985 c -0.606 1.181 -1.806 1.914 -3.13 1.914 c -0.84 0 -1.523 0.683 -1.523 1.523 v 3.859 c 0 0.84 0.683 1.523 1.523 1.523 c 1.321 0 2.527 0.744 3.149 1.943 c 0.081 0.156 0.165 0.312 0.254 0.465 c 0.089 0.153 0.181 0.305 0.276 0.453 c 0.729 1.138 0.771 2.555 0.109 3.7 c -0.42 0.727 -0.17 1.659 0.558 2.079 l 3.341 1.929 c 0.352 0.204 0.76 0.258 1.156 0.152 c 0.393 -0.105 0.721 -0.356 0.924 -0.709 c 0.661 -1.147 1.875 -1.829 3.222 -1.755 c 0.376 0.018 0.754 0.02 1.136 0 C 62.582 85.482 62.64 85.481 62.698 85.481 z" style="stroke: none; stroke-width: 1; stroke-dasharray: none; stroke-linecap: butt; stroke-linejoin: miter; stroke-miterlimit: 10; fill: rgb(0,0,0); fill-rule: nonzero; opacity: 1;" transform=" matrix(1 0 0 1 0 0) " stroke-linecap="round" />
	<path d="M 61.964 80.923 c -0.621 0 -1.245 -0.082 -1.861 -0.247 c -1.844 -0.493 -3.385 -1.676 -4.339 -3.329 s -1.208 -3.579 -0.714 -5.423 c 0.494 -1.844 1.676 -3.385 3.329 -4.339 c 1.653 -0.953 3.579 -1.208 5.423 -0.714 c 1.844 0.494 3.385 1.676 4.339 3.329 c 0.955 1.653 1.208 3.579 0.714 5.423 c -0.493 1.844 -1.676 3.385 -3.329 4.339 C 64.424 80.598 63.203 80.923 61.964 80.923 z M 61.945 68.625 c -0.892 0 -1.773 0.234 -2.566 0.692 c -1.19 0.687 -2.042 1.796 -2.398 3.124 c -0.355 1.327 -0.173 2.715 0.515 3.905 c 0.687 1.19 1.796 2.042 3.124 2.398 c 1.33 0.357 2.716 0.172 3.905 -0.515 l 0 0 c 1.19 -0.687 2.042 -1.796 2.398 -3.124 c 0.356 -1.327 0.173 -2.715 -0.515 -3.905 c -0.687 -1.19 -1.796 -2.042 -3.124 -2.398 C 62.841 68.684 62.392 68.625 61.945 68.625 z" style="stroke: none; stroke-width: 1; stroke-dasharray: none; stroke-linecap: butt; stroke-linejoin: miter; stroke-miterlimit: 10; fill: rgb(0,0,0); fill-rule: nonzero; opacity: 1;" transform=" matrix(1 0 0 1 0 0) " stroke-linecap="round" />
</g>
</svg>