<?xml version="1.0" ?><!-- Uploaded to: SVG Repo, www.svgrepo.com, Generator: SVG Repo Mixer Tools -->
<svg fill="#000000" width="800px" height="800px" viewBox="0 0 100 100" data-name="Layer 1" id="Layer_1" xmlns="http://www.w3.org/2000/svg"><path d="M66.39,73.9a1.27,1.27,0,0,0-.9.38,17.27,17.27,0,0,1-25,0,1.27,1.27,0,0,0-.9-.38c-7.3,0-12.33,1.74-14.94,5.16a9.54,9.54,0,0,0-1.62,7.85,1.23,1.23,0,0,0,1.53.87,1.25,1.25,0,0,0,.88-1.53,7,7,0,0,1,1.23-5.71c2-2.63,6.31-4.06,12.4-4.13a19.79,19.79,0,0,0,27.81,0c6.09.07,10.38,1.5,12.41,4.13a7,7,0,0,1,1.22,5.71,1.26,1.26,0,0,0,.87,1.54,1.32,1.32,0,0,0,.34,0,1.25,1.25,0,0,0,1.2-.92,9.54,9.54,0,0,0-1.62-7.85C78.72,75.64,73.69,73.9,66.39,73.9Z"/><path d="M21.65,26.48a1.25,1.25,0,0,0-.86,2.35,1.35,1.35,0,0,0,.43.08,1.27,1.27,0,0,0,1.18-.83A1.25,1.25,0,0,0,21.65,26.48Z"/><path d="M18.64,26.71a1.25,1.25,0,0,0-2.35-.86A1.27,1.27,0,0,0,17,27.46a1.25,1.25,0,0,0,.43.07A1.23,1.23,0,0,0,18.64,26.71Z"/><path d="M19.6,16.6a1.25,1.25,0,0,0-.41,1.72,1.26,1.26,0,0,0,1.07.59,1.2,1.2,0,0,0,.65-.19A1.25,1.25,0,1,0,19.6,16.6Z"/><path d="M21.7,20a1.26,1.26,0,0,0-.4,1.72,1.24,1.24,0,0,0,1.06.59,1.28,1.28,0,0,0,.66-.18A1.25,1.25,0,1,0,21.7,20Z"/><path d="M23.4,25.12a1.25,1.25,0,0,0,2.13-1.31,1.25,1.25,0,1,0-2.13,1.31Z"/><path d="M28.36,23.28h.08a1.24,1.24,0,0,0,1.25-1.17,1.25,1.25,0,1,0-1.33,1.17Z"/><path d="M28.62,19.29h.08a1.22,1.22,0,1,0-.08,0Z"/><path d="M32.13,52.1a1.9,1.9,0,0,0,0-.25V33.54a1.5,1.5,0,1,0-3,0V51.85a2,2,0,0,0,0,.25,4.9,4.9,0,1,0,3,0Z"/><path d="M82.92,41.16a68.44,68.44,0,0,1-9,1.35h0C71.83,30.63,63.35,22.42,53,22.42c-6.51,0-12.56,3.46-16.54,9.22a6.06,6.06,0,0,0-11.87,1.75V48.65A10.11,10.11,0,0,0,36.25,65.16C40.34,71.93,46.52,75.92,53,75.92c10,0,18.81-9.46,20.92-22.17a5.56,5.56,0,0,0,4.4-5.62,6,6,0,0,0-1.09-3.45c2-.26,4.09-.61,6.23-1.08a1.24,1.24,0,0,0,1-1.48A1.25,1.25,0,0,0,82.92,41.16ZM53,24.92c9,0,16.43,7.25,18.38,17.76C55.45,43.4,45,38.23,44.83,38.16a1.25,1.25,0,1,0-1.13,2.23c.51.26,9.84,4.89,24.44,4.89.87,0,1.76,0,2.67-.06L62.54,58.1a14,14,0,0,0-8.25-3.44,20.37,20.37,0,0,0-2.21,0,14,14,0,0,0-8.26,3.44l-3.33-5.19a1.26,1.26,0,0,0-.7-.51,10,10,0,0,0-2.16-3,11.21,11.21,0,0,0-.91-.77V36.15C40.08,29.12,46.15,24.92,53,24.92ZM23,56.74a7.61,7.61,0,0,1,3.48-6.39,1.26,1.26,0,0,0,.57-1.05V33.39a3.57,3.57,0,1,1,7.13,0V49.3a1.26,1.26,0,0,0,.57,1.05,7.6,7.6,0,0,1,2.06,10.81l0,.05c-.14.19-.29.38-.44.56l-.07.07a5.44,5.44,0,0,1-.48.48A7.6,7.6,0,0,1,23,56.74ZM38.17,63.5l.08-.09c.15-.17.29-.35.43-.53l.15-.2c.13-.19.27-.38.39-.58l.11-.19c.13-.21.25-.42.36-.64,0-.05.05-.11.08-.17.11-.22.21-.45.3-.68l.07-.19c.08-.23.16-.45.23-.68a2.68,2.68,0,0,1,.07-.27c.05-.21.11-.42.15-.63l.06-.43c0-.11,0-.23.05-.35l1.54,2.39-1.68,6.65A25.5,25.5,0,0,1,38.17,63.5Zm4.43,5.55,2.11-8.38a11.6,11.6,0,0,1,7.52-3.51,15.22,15.22,0,0,1,1.91,0,11.57,11.57,0,0,1,7.51,3.51L63.7,68.8A15.64,15.64,0,0,1,53,73.42,15.51,15.51,0,0,1,42.6,69.05ZM73.16,51.31h0l-.2,0a1.25,1.25,0,0,0-1.35,1.07,28.83,28.83,0,0,1-5.88,14.23l-1.59-6.33,9.74-15.18a3.15,3.15,0,0,1,1.95,3.05A3,3,0,0,1,73.16,51.31Z"/><path d="M56.58,59.86,55,59.17a4.59,4.59,0,0,0-3.6,0l-1.59.69a1.25,1.25,0,1,0,1,2.29l1.59-.68a2,2,0,0,1,1.62,0l1.59.68a1.25,1.25,0,1,0,1-2.29Z"/><path d="M43.58,50.42a1.34,1.34,0,0,0,.4-.06l2.87-1a1.25,1.25,0,0,0-.8-2.37l-2.87,1a1.25,1.25,0,0,0,.4,2.43Z"/><path d="M58.27,49.38l2.87,1a1.34,1.34,0,0,0,.4.06,1.25,1.25,0,0,0,.4-2.43l-2.87-1a1.25,1.25,0,0,0-.8,2.37Z"/></svg>