<?xml version="1.0" encoding="iso-8859-1"?>
<!-- Uploaded to: SVG Repo, www.svgrepo.com, Generator: SVG Repo Mixer Tools -->
<svg fill="#000000" height="800px" width="800px" version="1.1" id="Capa_1" xmlns="http://www.w3.org/2000/svg" xmlns:xlink="http://www.w3.org/1999/xlink" 
	 viewBox="0 0 387.04 387.04" xml:space="preserve">
<g>
	<g id="Layer_5_41_">
		<g>
			<path d="M132.634,77.264c-53.744,0-97.31,43.566-97.31,97.312v30.932c0,26.439,8.772,50.539,25.885,68.076
				c2.382,1.699,3.821,0.546,4.875-0.131c7.816-4.999,16.865-10.185,27.062-12.769l0,0c6.2-1.565,8.546-2.432,13.04-3.517
				c2.273-0.549,2.488-1.93-0.594-2.801c-27.741-7.842-41.629-34.602-41.629-66.33c0,0,0-15.911,0-21.216
				c0-2.15,1.044-2.842,2.716-2.842c5.346,0,17.128,0,21.798,0c1.895,0,2.313-1.224,2.755-2.937
				c1.042-4.03,3.186-22.729,5.846-22.689c2.66,0.037,4.597,18.888,5.495,22.871c0.364,1.617,0.876,2.755,2.587,2.755
				c3.43,0,7.837,0,12.875,0c26.442,0,70.228,0,80.878,0c1.542,0,2.389,0.991,2.389,2.962c0,5.274,0,21.096,0,21.096
				c0,32.232-14.213,59.332-42.934,66.682c-2.456,0.63-2.051,1.742-0.147,2.007c4.298,0.601,6.426,1.594,12.734,2.97
				c10.37,2.469,21.503,8.044,29.841,12.966c0.917,0.541,2.434,1.309,4.673-0.635c16.43-17.423,24.474-40.68,24.474-66.518v-30.932
				C229.943,120.83,186.376,77.264,132.634,77.264z"/>
			<path d="M180.3,275.748c-3.399-1.389-6.969-2.591-10.689-3.61c-0.506-0.139-1.314-0.502-2.302-0.501
				c-0.544,0-1.305,0.219-2.202,0.945c-1.797,1.089-3.605,2.065-5.434,2.944c-7.981,3.485-16.295,5.034-26.039,5.034
				c-12.854,0-23.442-2.724-33.686-8.935c-1.434-1.162-2.427-0.631-2.922-0.516c-31.173,7.282-53.018,26.255-53.018,62.296v16.805
				l0.001,0.01c0.01,4.105,0.067,24.901,0.093,32.938c0.007,2.287-0.094,3.691,3.207,3.718
				c17.261,0.145,143.623,0.263,170.438,0.038c3.301-0.027,3.199-1.432,3.207-3.719c0.026-8.036,0.083-27.914,0.093-32.02
				c0-0.004,0.001-0.006,0.001-0.006v-16.808C221.047,303.269,204.78,284.888,180.3,275.748z M136.269,347.492
				c-0.435,0.879-1.191,2.304-3.172,2.304c-1.842,0-2.809-1.569-3.293-2.478c-9.083-17.072-52.392-53.561-52.392-53.561
				c-0.502-0.736,0.108-1.316,0.548-1.467c3.166-1.082,15.272-10.83,18.678-11.626c0.495-0.115,1.658-0.369,2.922,0.516
				c10.244,6.212,20.832,8.935,33.686,8.935c9.744,0,18.058-1.549,26.039-5.034c1.829-0.879,3.637-1.855,5.434-2.944
				c0.898-0.727,1.688-0.915,2.232-0.915c0.988-0.001,1.767,0.332,2.273,0.471c2.936,0.806,14.594,10.539,17.333,11.574
				c0.694,0.262,1.77,1.078,1.074,2.088C187.631,295.354,144.689,330.475,136.269,347.492z M198.626,342.472h-33.128v-7.167h33.128
				V342.472z"/>
			<path d="M266.263,89.084c-1.185,0-2.154-0.97-2.154-2.154V50.375c0-1.185-0.969-2.154-2.154-2.154h-8.112
				c-1.185,0-2.154,0.97-2.154,2.154l-0.002,48.977c0,1.185,0.969,2.154,2.154,2.154h47.994c1.185,0,2.154-0.97,2.154-2.154v-8.113
				c0-1.185-0.969-2.154-2.154-2.154L266.263,89.084L266.263,89.084z"/>
			<path d="M259.408,0c-27.333,0-51.891,11.883-68.787,30.766c-6.849,7.648-11.664,14.697-15.674,24.32
				c-0.685,1.731,0.876,2.204,1.686,2.439c3.9,1.136,7.711,2.485,11.415,4.04c0.882,0.37,2.547,0.835,3.441-0.67
				c3.222-7.472,6.803-12.505,12.155-18.481c13.701-15.303,33.609-24.935,55.765-24.935c41.33,0,74.826,33.501,74.826,74.826
				c0,2.462-0.118,4.903-0.355,7.306c-3.669,37.898-35.608,67.521-74.47,67.521c-5.313,0-5.494,3.347-5.494,3.347
				s-0.28,8.564,0.038,11.84c0.227,2.339,2.143,2.292,2.143,2.292c1.806,0.105,1.481,0,3.313,0
				c48.496,0,88.258-37.397,92.013-84.936c0.194-2.43,0.292-4.887,0.292-7.37C351.713,41.327,310.387,0,259.408,0z"/>
		</g>
	</g>
</g>
</svg>