<?xml version="1.0" encoding="iso-8859-1"?>
<!-- Uploaded to: SVG Repo, www.svgrepo.com, Generator: SVG Repo Mixer Tools -->
<svg fill="#000000" height="800px" width="800px" version="1.1" id="Layer_1" xmlns="http://www.w3.org/2000/svg" xmlns:xlink="http://www.w3.org/1999/xlink" 
	 viewBox="0 0 512 512" xml:space="preserve">
<g>
	<g>
		<path d="M138.418,273.859h-15.741v-9.774h7.132c4.466,0,8.084-3.62,8.084-8.084s-3.619-8.084-8.084-8.084h-7.132v-9.775h15.741
			v-0.001c4.466,0,8.084-3.62,8.084-8.084c0-4.465-3.619-8.084-8.084-8.084h-23.825c-4.466,0-8.084,3.62-8.084,8.084v51.888
			c0,4.465,3.619,8.084,8.084,8.084h23.825c4.466,0,8.084-3.62,8.084-8.084S142.884,273.859,138.418,273.859z"/>
	</g>
</g>
<g>
	<g>
		<path d="M175.806,247.916c-2.695,0-4.887-2.192-4.887-4.888c0-2.696,2.192-4.888,4.887-4.888h12.972
			c4.466,0,8.084-3.62,8.084-8.084c0-4.465-3.618-8.084-8.084-8.084h-12.972c-11.61,0-21.056,9.446-21.056,21.057
			c0,11.611,9.446,21.057,21.056,21.057c2.696,0,4.888,2.192,4.888,4.887c0,2.695-2.192,4.888-4.888,4.888h-12.971
			c-4.466,0-8.084,3.62-8.084,8.084s3.619,8.084,8.084,8.084h12.971c11.61,0,21.057-9.446,21.057-21.057
			C196.863,257.361,187.416,247.916,175.806,247.916z"/>
	</g>
</g>
<g>
	<g>
		<path d="M239.72,273.859h-15.74v-9.774h7.132c4.466,0,8.084-3.62,8.084-8.084s-3.619-8.084-8.084-8.084h-7.132v-9.775h15.74
			v-0.001c4.466,0,8.084-3.62,8.084-8.084c0-4.465-3.618-8.084-8.084-8.084h-23.825c-4.466,0-8.084,3.62-8.084,8.084v51.888
			c0,4.465,3.618,8.084,8.084,8.084h23.825c4.466,0,8.084-3.62,8.084-8.084S244.186,273.859,239.72,273.859z"/>
	</g>
</g>
<g>
	<g>
		<path d="M401.343,273.859h-15.74v-9.774h7.133c4.466,0,8.084-3.62,8.084-8.084s-3.618-8.084-8.084-8.084h-7.133v-9.775h15.74
			v-0.001c4.466,0,8.084-3.62,8.084-8.084c0-4.465-3.618-8.084-8.084-8.084h-23.825c-4.466,0-8.084,3.62-8.084,8.084v51.888
			c0,4.465,3.618,8.084,8.084,8.084h23.825c4.466,0,8.084-3.62,8.084-8.084S405.809,273.859,401.343,273.859z"/>
	</g>
</g>
<g>
	<g>
		<path d="M81.35,263.232c6.355-3.934,10.611-10.949,10.611-18.957c0-12.299-10.005-22.304-22.303-22.304H53.443
			c-4.466,0-8.084,3.62-8.084,8.084v51.888c0,4.465,3.618,8.084,8.084,8.084c4.466,0,8.084-3.62,8.084-8.084v-15.364h3.281
			l10.23,19.172c1.455,2.727,4.25,4.279,7.14,4.279c1.283,0,2.586-0.307,3.798-0.954c3.939-2.102,5.428-7,3.326-10.938
			L81.35,263.232z M69.658,250.41h-8.131v-12.271h8.131c3.384,0,6.134,2.752,6.134,6.135C75.792,247.658,73.04,250.41,69.658,250.41
			z"/>
	</g>
</g>
<g>
	<g>
		<path d="M294.744,263.232c6.354-3.934,10.611-10.949,10.611-18.957c0-12.299-10.005-22.304-22.303-22.304h-16.215
			c-4.466,0-8.084,3.62-8.084,8.084v51.888c0,4.465,3.619,8.084,8.084,8.084c4.466,0,8.084-3.62,8.084-8.084v-15.364h3.281
			l10.23,19.172c1.456,2.727,4.25,4.279,7.14,4.279c1.283,0,2.586-0.307,3.799-0.954c3.939-2.102,5.428-7,3.326-10.938
			L294.744,263.232z M283.051,250.41h-8.131v-12.271h8.131c3.384,0,6.134,2.752,6.134,6.135
			C289.186,247.658,286.435,250.41,283.051,250.41z"/>
	</g>
</g>
<g>
	<g>
		<path d="M359.094,222.493c-4.174-1.577-8.84,0.528-10.42,4.705l-12.049,31.88l-12.05-31.88c-1.579-4.176-6.243-6.282-10.42-4.704
			c-4.177,1.578-6.283,6.243-4.704,10.42l19.611,51.888c1.189,3.144,4.2,5.226,7.563,5.226s6.374-2.081,7.563-5.227l19.61-51.888
			C365.377,228.736,363.271,224.071,359.094,222.493z"/>
	</g>
</g>
<g>
	<g>
		<path d="M434.733,221.97h-6.435v0.001c-4.466,0-8.084,3.62-8.084,8.084v51.888c0,4.465,3.618,8.084,8.084,8.084h6.435
			c17.594,0,31.909-14.314,31.909-31.909v-4.239C466.642,236.284,452.329,221.97,434.733,221.97z M450.473,258.119
			c0,8.122-6.183,14.828-14.09,15.654v-35.548c7.907,0.827,14.09,7.532,14.09,15.654V258.119z"/>
	</g>
</g>
<g>
	<g>
		<path d="M500.465,199.728l-2.414-29.541c-0.342-4.196-3.847-7.426-8.057-7.426H22.005c-4.209,0-7.714,3.23-8.057,7.426
			L0.027,340.495c-0.184,2.251,0.581,4.477,2.113,6.136c1.531,1.661,3.685,2.606,5.945,2.606h48.509c4.466,0,8.084-3.62,8.084-8.084
			s-3.62-8.084-8.084-8.084H16.855L29.455,178.93h453.089l1.809,22.115c0.364,4.45,4.253,7.769,8.716,7.399
			C497.517,208.081,500.83,204.178,500.465,199.728z"/>
	</g>
</g>
<g>
	<g>
		<path d="M511.973,340.494l-9.575-117.122c-0.363-4.45-4.267-7.761-8.716-7.399c-4.45,0.363-7.762,4.266-7.398,8.716l8.86,108.38
			H83.54c-4.466,0-8.084,3.62-8.084,8.084s3.618,8.084,8.084,8.084h420.377c2.259,0,4.414-0.944,5.945-2.605
			C511.392,344.972,512.157,342.746,511.973,340.494z"/>
	</g>
</g>
</svg>