<?xml version="1.0" encoding="utf-8"?><!-- Uploaded to: SVG Repo, www.svgrepo.com, Generator: SVG Repo Mixer Tools -->
<svg fill="#000000" width="800px" height="800px" viewBox="0 0 1024 1024" xmlns="http://www.w3.org/2000/svg"><path d="M356.522 303.712c50.542 32.395 76.17 87.364 51.594 125.682-24.565 38.338-85.213 38.014-135.757 5.618a161.796 161.796 0 01-18.258-13.595c-14.54 20.659-34.561 39.64-58.329 54.875-69.395 44.479-151.525 44.924-183.737-5.351-32.225-50.274 2.475-124.708 71.869-169.186 57.754-37.022 124.671-43.701 164.142-15.211 29.97-13.058 72.006-6.215 108.476 17.168zm-22.106 34.483c-29.846-19.136-62.199-21.927-75.69-10.658-8.543 7.136-21.222 6.141-28.548-2.24-20.325-23.251-74.607-20.829-124.17 10.942-52.732 33.798-76.844 85.522-59.487 112.601 17.347 27.073 74.417 26.764 127.147-7.033 26.801-17.179 47.328-39.842 57.785-62.662 6.411-13.99 25.384-16.176 34.809-4.011 7.303 9.427 16.926 18.164 28.203 25.395 33.877 21.713 69.465 21.903 79.168 6.759 9.7-15.124-5.338-47.379-39.217-69.094zm-62.975 280.373c-9.279 22.895-31.566 38.197-56.683 38.197-25.971 0-48.852-16.351-57.527-40.378-3.841-10.639-15.579-16.149-26.218-12.309s-16.149 15.579-12.309 26.218c14.49 40.134 52.685 67.429 96.053 67.429 41.942 0 79.153-25.549 94.644-63.773 4.248-10.483-.806-22.424-11.288-26.673s-22.424.806-26.673 11.288zm-90.552-71.918c0 16.927-13.722 30.638-30.648 30.638-16.916 0-30.638-13.711-30.638-30.638s13.722-30.648 30.638-30.648c16.927 0 30.648 13.722 30.648 30.648zm135.196 0c0 16.927-13.722 30.638-30.638 30.638-16.927 0-30.648-13.711-30.648-30.638s13.722-30.648 30.648-30.648c16.916 0 30.638 13.722 30.638 30.648z"/><path d="M360.506 453.639c21.761 29.897 33.659 65.841 33.659 103.629 0 97.369-78.939 176.302-176.323 176.302-97.377 0-176.323-78.937-176.323-176.302 0-25.956 5.596-51.066 16.264-74.059 4.76-10.26.302-22.437-9.959-27.197s-22.437-.302-27.197 9.959C7.466 494.338.559 525.329.559 557.268c0 119.988 97.285 217.262 217.283 217.262 120.005 0 217.283-97.271 217.283-217.262 0-46.524-14.687-90.891-41.502-127.733-6.656-9.145-19.465-11.163-28.61-4.506s-11.163 19.465-4.506 28.61zm445.747 151.383c-9.279 22.895-31.566 38.197-56.683 38.197-25.971 0-48.852-16.351-57.527-40.378-3.841-10.639-15.579-16.149-26.218-12.309s-16.149 15.579-12.309 26.218c14.49 40.134 52.685 67.429 96.053 67.429 41.942 0 79.153-25.549 94.644-63.773 4.248-10.483-.806-22.424-11.288-26.673s-22.424.806-26.673 11.288zm-93.326-66.898c0 16.927-13.722 30.648-30.638 30.648-16.927 0-30.648-13.722-30.648-30.648s13.722-30.638 30.648-30.638c16.916 0 30.638 13.711 30.638 30.638zm135.197 0c0 16.927-13.722 30.648-30.638 30.648-16.927 0-30.648-13.722-30.648-30.648s13.722-30.638 30.648-30.638c16.916 0 30.638 13.711 30.638 30.638z"/><path d="M901.307 466.294c16.211 27.09 24.895 58.079 24.895 90.378 0 97.369-78.939 176.302-176.323 176.302-97.377 0-176.323-78.937-176.323-176.302 0-33.625 9.412-65.809 26.904-93.643 6.019-9.577 3.134-22.219-6.442-28.237s-22.219-3.134-28.237 6.442c-21.566 34.315-33.184 74.045-33.184 115.438 0 119.988 97.285 217.262 217.283 217.262 120.005 0 217.283-97.271 217.283-217.262 0-39.758-10.719-78.008-30.708-111.411-5.808-9.706-18.384-12.866-28.09-7.058s-12.866 18.384-7.058 28.09z"/><path d="M516.628 520.14c0-128.916 104.505-233.421 233.421-233.421 126.376 0 228.833 102.457 228.833 228.833v113.664h-51.364c-11.311 0-20.48 9.169-20.48 20.48s9.169 20.48 20.48 20.48h54.333c20.977 0 37.99-17.013 37.99-37.99V515.552c0-148.998-120.795-269.793-269.793-269.793-151.537 0-274.381 122.843-274.381 274.381v112.046c0 20.979 17.004 37.99 37.99 37.99h61.471c11.311 0 20.48-9.169 20.48-20.48s-9.169-20.48-20.48-20.48h-58.501V520.14z"/><path d="M583.592 472.932h332.913c11.311 0 20.48-9.169 20.48-20.48s-9.169-20.48-20.48-20.48H583.592c-11.311 0-20.48 9.169-20.48 20.48s9.169 20.48 20.48 20.48z"/></svg>