<?xml version="1.0" encoding="utf-8"?><!-- Uploaded to: SVG Repo, www.svgrepo.com, Generator: SVG Repo Mixer Tools -->
<svg fill="#000000" width="800px" height="800px" viewBox="0 0 1024 1024" xmlns="http://www.w3.org/2000/svg"><path d="M249.6 627.879c51.252 0 94.075-36.59 101.642-86.128a20.476 20.476 0 0110.015-14.649l1.403-.809a20.49 20.49 0 019.246-2.715c129.082-6.21 228.845-90.344 228.845-189.924 0-103.944-108.374-190.29-244.06-190.29-135.677 0-244.05 86.347-244.05 190.29 0 72.301 52.772 138.239 135.615 170.444l5.211 2.355a20.48 20.48 0 0111.924 18.607c0 38.067-14.927 73.572-40.338 99.877a103.256 103.256 0 0024.548 2.942zm0 40.96c-25.799 0-50.657-6.823-72.477-19.569-4.011-2.04-6.981-4.659-9.087-8.124-5.873-9.666-2.798-22.264 6.868-28.137 26.777-16.27 44.692-43.707 48.682-74.745.558-4.338.844-8.746.844-13.204h20.48l-8.556 18.607-4.076-1.874 8.556-18.607-7.42 19.088a325.149 325.149 0 01-9.828-4.011c-92.051-39.385-151.907-117.145-151.907-204.61 0-128.871 128.495-231.25 285.01-231.25 156.524 0 285.02 102.378 285.02 231.25 0 119.569-110.956 217.066-253.246 229.833-4.828.433-9.693.769-14.591 1.004l-.984-20.456 10.231 17.742-11.633-16.933 20.245 3.092a142.676 142.676 0 01-3.268 15.551c-16.566 61.545-72.858 105.353-138.864 105.353zm145.821-33.679c-3.138-10.867 3.128-22.22 13.994-25.358s22.22 3.128 25.358 13.994c23.262 80.558 112.798 141.479 220.731 146.68a20.486 20.486 0 019.26 2.723l1.382.799a20.48 20.48 0 019.999 14.64c7.485 48.997 49.848 85.197 100.546 85.197 18.284 0 35.823-4.817 51.25-13.832 9.766-5.707 22.308-2.416 28.015 7.349s2.416 22.308-7.349 28.015c-21.654 12.654-46.318 19.428-71.916 19.428-65.45 0-121.279-43.416-137.76-104.418-117.957-10.664-216.152-80.475-243.511-175.218z"/><path d="M850.81 859.119c9.666 5.874 12.74 18.472 6.865 28.138s-18.472 12.74-28.138 6.865c-42.287-25.699-68.673-71.583-68.673-122.001a20.48 20.48 0 0111.931-18.61l4.035-1.853 1.128-.478c82.025-31.89 134.274-97.174 134.274-168.734 0-93.259-88.667-173.58-208.08-186.57-11.244-1.223-19.368-11.33-18.145-22.575s11.33-19.368 22.575-18.145c138.63 15.08 244.61 111.085 244.61 227.29 0 86.708-59.309 163.8-150.515 202.876 3.983 30.645 21.688 57.725 48.133 73.797z"/></svg>